<?xml version="1.0" encoding="UTF-8" standalone="no"?>
<svg
   xmlns:dc="http://purl.org/dc/elements/1.1/"
   xmlns:cc="http://creativecommons.org/ns#"
   xmlns:rdf="http://www.w3.org/1999/02/22-rdf-syntax-ns#"
   xmlns:svg="http://www.w3.org/2000/svg"
   xmlns="http://www.w3.org/2000/svg"
   xmlns:xlink="http://www.w3.org/1999/xlink"
   xmlns:sodipodi="http://sodipodi.sourceforge.net/DTD/sodipodi-0.dtd"
   xmlns:inkscape="http://www.inkscape.org/namespaces/inkscape"
   inkscape:export-ydpi="96"
   inkscape:export-xdpi="96"
   inkscape:export-filename="/Users/robateau/github/gapps-yEd-github/doc/images/logo.png"
   sodipodi:docname="logo.svg"
   inkscape:version="1.0 (4035a4f, 2020-05-01)"
   id="svg8"
   version="1.1"
   viewBox="0 0 210 297"
   height="297mm"
   width="210mm">
  <defs
     id="defs2">
    <linearGradient
       id="linearGradient1012"
       inkscape:collect="always">
      <stop
         id="stop1008"
         offset="0"
         style="stop-color:#000000;stop-opacity:1;" />
      <stop
         id="stop1010"
         offset="1"
         style="stop-color:#000000;stop-opacity:0;" />
    </linearGradient>
    <linearGradient
       gradientUnits="userSpaceOnUse"
       y2="219.27424"
       x2="438.546"
       y1="219.27424"
       x1="0"
       id="linearGradient1014"
       xlink:href="#linearGradient1012"
       inkscape:collect="always" />
    <linearGradient
       y2="217.66548"
       x2="300.19211"
       y1="219.27424"
       x1="0"
       gradientUnits="userSpaceOnUse"
       id="linearGradient1016"
       xlink:href="#linearGradient1012"
       inkscape:collect="always" />
  </defs>
  <sodipodi:namedview
     inkscape:window-maximized="0"
     inkscape:window-y="23"
     inkscape:window-x="350"
     inkscape:window-height="943"
     inkscape:window-width="1252"
     showgrid="false"
     inkscape:document-rotation="0"
     inkscape:current-layer="g125"
     inkscape:document-units="mm"
     inkscape:cy="339.25087"
     inkscape:cx="335.77624"
     inkscape:zoom="1.1988294"
     inkscape:pageshadow="2"
     inkscape:pageopacity="0.0"
     borderopacity="1.0"
     bordercolor="#666666"
     pagecolor="#ffffff"
     id="base" />
  <metadata
     id="metadata5">
    <rdf:RDF>
      <cc:Work
         rdf:about="">
        <dc:format>image/svg+xml</dc:format>
        <dc:type
           rdf:resource="http://purl.org/dc/dcmitype/StillImage" />
        <dc:title></dc:title>
      </cc:Work>
    </rdf:RDF>
  </metadata>
  <g
     id="layer1"
     inkscape:groupmode="layer"
     inkscape:label="Layer 1">
    <g
       style="fill-opacity:1;fill:url(#linearGradient1014)"
       transform="matrix(0.13718676,0,0,0.13718676,65.56585,50.918142)"
       id="g181">
      <g
         style="fill-opacity:1;fill:url(#linearGradient1014)"
         id="g125">
	<path
   style="fill-opacity:1;fill:url(#linearGradient1016);stroke-width:0.99863865;stroke-miterlimit:4;stroke-dasharray:none"
   d="M 409.132,114.573 C 389.524,80.977 362.927,54.379 329.334,34.773 295.736,15.166 259.057,5.365 219.271,5.365 c -39.781,0 -76.472,9.804 -110.063,29.408 -33.596,19.605 -60.192,46.204 -79.8,79.8 C 9.803,148.168 0,184.854 0,224.63 c 0,47.78 13.94,90.745 41.827,128.906 27.884,38.164 63.906,64.572 108.063,79.227 5.14,0.954 8.945,0.283 11.419,-1.996 2.475,-2.282 3.711,-5.14 3.711,-8.562 0,-0.571 -0.049,-5.708 -0.144,-15.417 -0.098,-9.709 -0.144,-18.179 -0.144,-25.406 l -6.567,1.136 c -4.187,0.767 -9.469,1.092 -15.846,1 -6.374,-0.089 -12.991,-0.757 -19.842,-1.999 -6.854,-1.231 -13.229,-4.086 -19.13,-8.559 -5.898,-4.473 -10.085,-10.328 -12.56,-17.556 l -2.855,-6.57 c -1.903,-4.374 -4.899,-9.233 -8.992,-14.559 -4.093,-5.331 -8.232,-8.945 -12.419,-10.848 l -1.999,-1.431 c -1.332,-0.951 -2.568,-2.098 -3.711,-3.429 -1.142,-1.331 -1.997,-2.663 -2.568,-3.997 -0.572,-1.335 -0.098,-2.43 1.427,-3.289 1.525,-0.859 4.281,-1.276 8.28,-1.276 l 5.708,0.853 c 3.807,0.763 8.516,3.042 14.133,6.851 5.614,3.806 10.229,8.754 13.846,14.842 4.38,7.806 9.657,13.754 15.846,17.847 6.184,4.093 12.419,6.136 18.699,6.136 6.28,0 11.704,-0.476 16.274,-1.423 4.565,-0.952 8.848,-2.383 12.847,-4.285 1.713,-12.758 6.377,-22.559 13.988,-29.41 -10.848,-1.14 -20.601,-2.857 -29.264,-5.14 -8.658,-2.286 -17.605,-5.996 -26.835,-11.14 -9.235,-5.137 -16.896,-11.516 -22.985,-19.126 -6.09,-7.614 -11.088,-17.61 -14.987,-29.979 -3.901,-12.374 -5.852,-26.648 -5.852,-42.826 0,-23.035 7.52,-42.637 22.557,-58.817 -7.044,-17.318 -6.379,-36.732 1.997,-58.24 5.52,-1.715 13.706,-0.428 24.554,3.853 10.85,4.283 18.794,7.952 23.84,10.994 5.046,3.041 9.089,5.618 12.135,7.708 17.705,-4.947 35.976,-7.421 54.818,-7.421 18.842,0 37.117,2.474 54.823,7.421 l 10.849,-6.849 c 7.419,-4.57 16.18,-8.758 26.262,-12.565 10.088,-3.805 17.802,-4.853 23.134,-3.138 8.562,21.509 9.325,40.922 2.279,58.24 15.036,16.18 22.559,35.787 22.559,58.817 0,16.178 -1.958,30.497 -5.853,42.966 -3.9,12.471 -8.941,22.457 -15.125,29.979 -6.191,7.521 -13.901,13.85 -23.131,18.986 -9.232,5.14 -18.182,8.85 -26.84,11.136 -8.662,2.286 -18.415,4.004 -29.263,5.146 9.894,8.562 14.842,22.077 14.842,40.539 v 60.237 c 0,3.422 1.19,6.279 3.572,8.562 2.379,2.279 6.136,2.95 11.276,1.995 44.163,-14.653 80.185,-41.062 108.068,-79.226 27.88,-38.161 41.825,-81.126 41.825,-128.906 -0.01,-39.771 -9.818,-76.454 -29.414,-110.049 z"
   id="path123" />

</g>
      <g
         style="fill-opacity:1;fill:url(#linearGradient1014)"
         id="g127">
</g>
      <g
         style="fill-opacity:1;fill:url(#linearGradient1014)"
         id="g129">
</g>
      <g
         style="fill-opacity:1;fill:url(#linearGradient1014)"
         id="g131">
</g>
      <g
         style="fill-opacity:1;fill:url(#linearGradient1014)"
         id="g133">
</g>
      <g
         style="fill-opacity:1;fill:url(#linearGradient1014)"
         id="g135">
</g>
      <g
         style="fill-opacity:1;fill:url(#linearGradient1014)"
         id="g137">
</g>
      <g
         style="fill-opacity:1;fill:url(#linearGradient1014)"
         id="g139">
</g>
      <g
         style="fill-opacity:1;fill:url(#linearGradient1014)"
         id="g141">
</g>
      <g
         style="fill-opacity:1;fill:url(#linearGradient1014)"
         id="g143">
</g>
      <g
         style="fill-opacity:1;fill:url(#linearGradient1014)"
         id="g145">
</g>
      <g
         style="fill-opacity:1;fill:url(#linearGradient1014)"
         id="g147">
</g>
      <g
         style="fill-opacity:1;fill:url(#linearGradient1014)"
         id="g149">
</g>
      <g
         style="fill-opacity:1;fill:url(#linearGradient1014)"
         id="g151">
</g>
      <g
         style="fill-opacity:1;fill:url(#linearGradient1014)"
         id="g153">
</g>
      <g
         style="fill-opacity:1;fill:url(#linearGradient1014)"
         id="g155">
</g>
    </g>
    <path
       style="fill:#ffffff;fill-opacity:1;stroke-width:0.296548"
       d="m 115.67783,113.12923 c -2.43383,-0.54719 -4.04067,-1.32311 -11.51333,-5.55959 -8.341265,-4.72893 -10.092438,-6.05207 -12.194234,-9.213611 -3.034946,-4.565212 -3.507757,-7.272238 -3.370965,-19.300123 0.09908,-8.711861 0.102958,-8.75801 0.933417,-11.117714 2.107493,-5.98829 4.216207,-8.064346 14.027472,-13.810248 8.00495,-4.688034 8.78818,-5.077239 11.67282,-5.800562 2.81353,-0.705492 7.75017,-0.436508 10.48684,0.571399 1.11937,0.412261 5.38043,2.662269 9.469,5.000018 6.42258,3.672276 7.72619,4.540716 9.58339,6.384299 1.67861,1.666299 2.44954,2.738409 3.51851,4.893046 2.05778,4.147765 2.29978,6.036325 2.17305,16.958816 -0.10323,8.894221 -0.10704,8.94096 -0.93386,11.303536 -1.32757,3.793562 -3.46004,6.866794 -6.27312,9.040574 -1.8078,1.39697 -13.93661,8.51368 -16.06336,9.42536 -3.31287,1.42013 -8.29155,1.94967 -11.51563,1.2248 z m 6.19345,-10.07911 c 2.2877,-1.7995 2.15272,-4.708639 -0.28848,-6.217392 -0.87155,-0.538644 -1.71165,-0.70606 -4.38128,-0.873111 -5.38979,-0.337262 -7.33447,-1.680234 -10.67601,-7.372635 -2.52429,-4.300205 -2.95125,-5.600017 -2.81548,-8.571149 0.0934,-2.043544 0.26326,-2.630239 1.44035,-4.974524 1.70328,-3.392297 1.82998,-5.215346 0.46167,-6.643546 -1.66831,-1.74134 -4.16052,-1.735173 -5.632302,0.01393 -1.501512,1.784463 -1.409302,2.837722 0.606352,6.925289 1.28034,2.59644 1.3814,2.968317 1.39535,5.134674 0.0142,2.211808 -0.0663,2.507707 -1.52177,5.586989 -1.676157,3.546294 -1.832432,4.518996 -0.95677,5.955129 0.96067,1.575555 1.76613,1.903555 5.38981,2.194843 5.08094,0.408429 7.51176,1.777116 9.95579,5.605658 1.24846,1.955695 2.39555,3.234955 3.20171,3.570605 1.1421,0.47551 2.99762,0.31296 3.82106,-0.33476 z m 16.33069,-9.290305 c 2.41937,-1.010885 2.6924,-3.492179 0.79068,-7.185811 -2.29915,-4.465549 -2.33907,-7.314385 -0.16228,-11.580431 1.43899,-2.820101 1.67359,-4.462224 0.86176,-6.032125 -0.71936,-1.391091 -2.23829,-1.960823 -5.71813,-2.144794 -2.48165,-0.131198 -3.35357,-0.307452 -4.64385,-0.938726 -1.93916,-0.948742 -3.68355,-2.597031 -4.77496,-4.511887 -1.54664,-2.713557 -3.09953,-3.959127 -4.93337,-3.95705 -2.95139,0.0034 -4.72174,3.491737 -3.05951,6.028629 0.76539,1.168123 2.2188,1.664537 5.69055,1.943612 5.93095,0.476758 8.03675,2.192529 11.97271,9.755169 2.1283,4.089364 2.12671,6.970029 -0.006,11.079392 -1.43606,2.766911 -1.71051,4.193615 -1.09165,5.674754 0.8228,1.96925 2.95495,2.754717 5.07414,1.869268 z"
       id="path183" />
    <ellipse
       ry="24.254545"
       rx="22.139322"
       cy="79.908379"
       cx="120.19161"
       id="path26"
       style="fill:#c0fc1a;fill-opacity:1;stroke-width:0.264583" />
    <path
       id="path24"
       d="m 116.62276,109.63288 c -2.17149,-0.48821 -3.60513,-1.18049 -10.2723,-4.96032 -7.442175,-4.2192 -9.004589,-5.399717 -10.879832,-8.220477 -2.70781,-4.073128 -3.129656,-6.488364 -3.007609,-17.219763 0.0884,-7.77281 0.09186,-7.813984 0.832804,-9.919336 1.880326,-5.342812 3.761742,-7.19509 12.515467,-12.321642 7.14209,-4.182711 7.84089,-4.529963 10.4146,-5.175319 2.51026,-0.629447 6.91478,-0.389457 9.35646,0.509808 0.99871,0.367823 4.80047,2.375303 8.44834,4.461066 5.73029,3.276441 6.89338,4.051272 8.55039,5.696135 1.49768,1.486689 2.18551,2.443236 3.13925,4.365625 1.83598,3.700678 2.05189,5.38567 1.93882,15.130826 -0.0921,7.935513 -0.0955,7.977214 -0.8332,10.085128 -1.18447,3.384654 -3.08708,6.126622 -5.59694,8.066089 -1.61294,1.24639 -12.43438,7.59599 -14.33189,8.4094 -2.95578,1.26706 -7.3978,1.73952 -10.27436,1.09278 z m 5.52586,-8.99268 c 2.04111,-1.605537 1.92068,-4.201097 -0.25739,-5.547221 -0.7776,-0.480584 -1.52715,-0.629954 -3.90902,-0.778999 -4.80882,-0.300908 -6.54389,-1.499121 -9.52524,-6.577939 -2.25219,-3.836686 -2.63313,-4.996391 -2.512,-7.647265 0.0833,-1.82327 0.23489,-2.346725 1.28509,-4.43832 1.51969,-3.026641 1.63273,-4.653184 0.41191,-5.927438 -1.48848,-1.553641 -3.71205,-1.548139 -5.02519,0.01243 -1.33967,1.592116 -1.2574,2.531844 0.54099,6.178812 1.14234,2.31657 1.23251,2.648363 1.24495,4.581208 0.0127,1.973397 -0.0592,2.237401 -1.35774,4.984768 -1.49549,3.164039 -1.63492,4.031893 -0.85364,5.313225 0.85712,1.405726 1.57576,1.698371 4.80884,1.958261 4.53326,0.364405 6.70206,1.585561 8.88265,5.001425 1.11389,1.744886 2.13734,2.886253 2.8566,3.185723 1.01899,0.42426 2.67451,0.27923 3.40919,-0.29867 z m 14.5704,-8.288905 c 2.15859,-0.901922 2.40219,-3.115757 0.70546,-6.411253 -2.05133,-3.984207 -2.08695,-6.525967 -0.14479,-10.332176 1.28388,-2.516123 1.49319,-3.981241 0.76887,-5.381923 -0.64182,-1.241145 -1.99703,-1.749466 -5.10177,-1.913606 -2.21416,-0.117057 -2.99209,-0.274312 -4.14329,-0.837541 -1.73014,-0.846477 -3.2865,-2.317097 -4.26027,-4.025551 -1.37993,-2.421063 -2.76543,-3.532373 -4.4016,-3.53052 -2.63326,0.003 -4.21279,3.115363 -2.72973,5.378804 0.68289,1.042211 1.97964,1.485116 5.07717,1.73411 5.29165,0.425368 7.17047,1.956196 10.68217,8.703659 1.89889,3.648572 1.89747,6.21873 -0.005,9.885145 -1.28126,2.468666 -1.52613,3.741585 -0.97398,5.063072 0.73411,1.756985 2.63644,2.457786 4.5272,1.66778 z"
       style="fill:#242265;stroke-width:0.264583;fill-opacity:1" />
  </g>
</svg>
